<?xml version="1.0" encoding="UTF-8"?><!DOCTYPE svg PUBLIC "-//W3C//DTD SVG 1.1//EN" "http://www.w3.org/Graphics/SVG/1.1/DTD/svg11.dtd"><svg xmlns="http://www.w3.org/2000/svg"><symbol id="feature-safe" viewBox="0 0 52 52"><g fill="none" fill-rule="evenodd" stroke-linecap="round" stroke-linejoin="round"><path stroke="#FFF" d="M51 47.552A3.448 3.448 0 0 1 47.552 51H4.448A3.448 3.448 0 0 1 1 47.552V4.448A3.448 3.448 0 0 1 4.448 1h43.104A3.448 3.448 0 0 1 51 4.448v43.104z"/><path stroke="#23F1C9" stroke-width="2" d="M28.862 26a6.034 6.034 0 1 0-12.069 0 6.034 6.034 0 0 0 12.07 0z"/><path stroke="#FFF" d="M6.172 45.828h39.656V6.172H6.172v5.173"/><path stroke="#23F1C9" stroke-width="2" d="M16.793 26H15.07m3.491 4.267l-1.219 1.219m5.486.548v1.724m4.268-3.492l1.219 1.22m.547-5.488h1.724m-3.492-4.266l1.22-1.22m-5.486-.547l-.002-1.724m-4.266 3.491l-1.22-1.218M23.69 26a.862.862 0 1 0-1.724 0 .862.862 0 0 0 1.724 0z"/><path stroke="#FFF" d="M4.448 18.241h3.449v-6.896H4.448zm32.759 18.966h3.448V14.793h-3.448zM4.448 40.655h3.449V33.76H4.448zm1.724 3.448v1.725m0-24.138v12.069"/></g></symbol><symbol id="statis-logo" viewBox="0 0 156 50"><g fill="none" fill-rule="evenodd"><path fill="#2468E4" d="M25 50C11.193 50 0 38.807 0 25S11.193 0 25 0s25 11.193 25 25-11.193 25-25 25z"/><path d="M36 28H20c-3.538 0-6-2.687-6-6h17c2.537 0 5 2.687 5 6m-5-17H20c-3.537 0-6 2.48-6 6v3h6v-3h16c0-3.52-2.463-6-5-6m-1 19v3H14c0 3.52 2.463 6 6 6h11c2.537 0 5-2.48 5-6v-3h-6z" fill="#FFF"/><path fill="#00233A" d="M61.068 34.545v-3.38c2.33.226 4.318.34 5.966.34.966 0 1.718-.043 2.258-.127.54-.085.942-.232 1.208-.44.245-.19.402-.417.468-.682.066-.265.1-.645.1-1.137 0-.55-.039-.951-.114-1.207a.917.917 0 0 0-.454-.568c-.228-.123-.607-.213-1.137-.27l-4.175-.484c-1.25-.17-2.217-.496-2.899-.98a3.677 3.677 0 0 1-1.406-1.874c-.256-.767-.383-1.72-.383-2.855 0-1.667.302-2.931.909-3.794a4.175 4.175 0 0 1 2.443-1.69C64.875 15.134 66.19 15 67.8 15c2.48 0 4.602.19 6.363.568v3.295a41.754 41.754 0 0 0-5.539-.37c-1.705 0-2.832.143-3.381.428-.303.15-.493.35-.568.596-.076.246-.114.616-.114 1.108 0 .568.038.976.114 1.222.075.245.24.42.496.525.257.104.687.194 1.294.27l4.488.54c.871.095 1.59.27 2.16.525.567.255 1.012.677 1.334 1.265.455.814.683 2.073.683 3.778 0 1.799-.285 3.152-.853 4.063-.568.908-1.33 1.5-2.287 1.774-.957.275-2.212.413-3.764.413-2.785 0-5.17-.153-7.16-.455m21.99.625V19.29h-5.681v-3.665h15.397v3.665h-5.681v15.88zm19.262-15.737h-.142l-2.642 8.01h5.454l-2.67-8.01zm5.17 15.738l-1.42-4.205h-7.614l-1.391 4.205H93l6.62-19.546h5.425l6.62 19.546h-4.177zm7.33-.626v-3.38c2.33.226 4.318.34 5.966.34.966 0 1.72-.043 2.258-.127.54-.085.942-.232 1.208-.44.246-.19.402-.417.469-.682.065-.265.1-.645.1-1.137 0-.55-.04-.951-.115-1.207a.913.913 0 0 0-.454-.568c-.227-.123-.607-.213-1.137-.27l-4.175-.484c-1.25-.17-2.216-.496-2.899-.98a3.672 3.672 0 0 1-1.405-1.874c-.257-.767-.384-1.72-.384-2.855 0-1.667.302-2.931.91-3.794a4.176 4.176 0 0 1 2.442-1.69c1.023-.264 2.339-.397 3.949-.397 2.48 0 4.603.19 6.363.568v3.295a41.747 41.747 0 0 0-5.539-.37c-1.705 0-2.831.143-3.38.428-.304.15-.493.35-.569.596-.076.246-.114.616-.114 1.108 0 .568.038.976.114 1.222.076.245.242.42.497.525.256.104.686.194 1.293.27l4.488.54c.872.095 1.591.27 2.16.525.568.255 1.013.677 1.335 1.265.455.814.682 2.073.682 3.778 0 1.799-.285 3.152-.852 4.063-.568.908-1.331 1.5-2.287 1.774-.958.275-2.213.413-3.764.413-2.785 0-5.171-.153-7.16-.455M133 35.17h4.034V15.626H133zm8.693-.625v-3.38c2.33.226 4.318.34 5.966.34.966 0 1.72-.043 2.258-.127.54-.085.942-.232 1.208-.44.246-.19.402-.417.469-.682.065-.265.099-.645.099-1.137 0-.55-.039-.951-.114-1.207a.915.915 0 0 0-.454-.568c-.227-.123-.607-.213-1.137-.27l-4.175-.484c-1.25-.17-2.217-.496-2.899-.98a3.677 3.677 0 0 1-1.406-1.874c-.256-.767-.383-1.72-.383-2.855 0-1.667.303-2.931.91-3.794a4.176 4.176 0 0 1 2.442-1.69c1.023-.264 2.339-.397 3.949-.397 2.48 0 4.603.19 6.363.568v3.295a41.754 41.754 0 0 0-5.539-.37c-1.705 0-2.831.143-3.38.428-.304.15-.494.35-.57.596-.075.246-.113.616-.113 1.108 0 .568.038.976.114 1.222a.81.81 0 0 0 .497.525c.256.104.686.194 1.293.27l4.488.54c.872.095 1.591.27 2.16.525.568.255 1.013.677 1.335 1.265.455.814.682 2.073.682 3.778 0 1.799-.285 3.152-.852 4.063-.569.908-1.332 1.5-2.287 1.774-.958.275-2.213.413-3.765.413-2.784 0-5.17-.153-7.159-.455"/></g></symbol></svg>