<?xml version="1.0" encoding="utf-8"?>
<!-- Generator: Adobe Illustrator 17.1.0, SVG Export Plug-In . SVG Version: 6.00 Build 0)  -->
<!DOCTYPE svg PUBLIC "-//W3C//DTD SVG 1.1//EN" "http://www.w3.org/Graphics/SVG/1.1/DTD/svg11.dtd">
<svg version="1.1" id="Layer_1" xmlns="http://www.w3.org/2000/svg" xmlns:xlink="http://www.w3.org/1999/xlink" x="0px" y="0px"
	 viewBox="0 0 16.3 16.3" enable-background="new 0 0 16.3 16.3" xml:space="preserve">
<g>
	<path fill="#FFFFFF" d="M8.4,0C3.4,0,0,3.1,0,7.8c0,6.2,4.9,8.5,8,8.5c2.9,0,3.7-1.7,3.8-3.3c0.3-0.2,0.6-0.5,0.9-0.9
		c-0.4,0.1-0.7,0-1-0.2c0,0-0.1-0.1-0.1-0.1c-0.2-0.1-0.3-0.3-0.4-0.6c0.6,0.6,1.5,0.9,1.7,0.6l0.2-0.2c0.2-0.3,0.4-0.6,0.3-0.8
		c0-0.2-0.2-0.5-0.5-0.8c-0.9-0.8-1.9-1.1-2.4-0.3l-0.5,0.7c-0.4,0.5-1.1,0.2-2.5-1.1C6,8,6,7.4,6.3,6.9C5.9,6.8,5.1,6.3,5,5.6
		c0.4,0.7,1.3,1.3,1.5,1l0.3-0.3c0.5-0.7,0.6-1.5-0.2-2.4C6.2,3.6,5.8,3.2,5.3,3.3c-3,1.8-2.3,4.1,0.8,7.5c1.8,2,3.4,2.7,4.7,2.6
		c-0.2,1.2-0.9,1.9-2.7,1.9c-1.9,0-7-1.3-7-7.5C1,3.7,3.9,1,8.4,1c4.5,0,6.9,4.3,6.9,6.1c0,1.9-0.7,3.7-1.4,4.6
		c-0.2,0.2-0.1,0.5,0.1,0.7c0.2,0.2,0.5,0.1,0.7-0.1c0.8-1.1,1.6-3.1,1.6-5.2C16.3,5,13.6,0,8.4,0z"/>
</g>
</svg>
