<svg id="feature-safe" viewBox="0 0 52 52" width="100%" height="100%"><g fill="none" fill-rule="evenodd" stroke-linecap="round" stroke-linejoin="round"><path stroke="#FFF" d="M51 47.552A3.448 3.448 0 0 1 47.552 51H4.448A3.448 3.448 0 0 1 1 47.552V4.448A3.448 3.448 0 0 1 4.448 1h43.104A3.448 3.448 0 0 1 51 4.448v43.104z"></path><path stroke="#23F1C9" stroke-width="2" d="M28.862 26a6.034 6.034 0 1 0-12.069 0 6.034 6.034 0 0 0 12.07 0z"></path><path stroke="#FFF" d="M6.172 45.828h39.656V6.172H6.172v5.173"></path><path stroke="#23F1C9" stroke-width="2" d="M16.793 26H15.07m3.491 4.267l-1.219 1.219m5.486.548v1.724m4.268-3.492l1.219 1.22m.547-5.488h1.724m-3.492-4.266l1.22-1.22m-5.486-.547l-.002-1.724m-4.266 3.491l-1.22-1.218M23.69 26a.862.862 0 1 0-1.724 0 .862.862 0 0 0 1.724 0z"></path><path stroke="#FFF" d="M4.448 18.241h3.449v-6.896H4.448zm32.759 18.966h3.448V14.793h-3.448zM4.448 40.655h3.449V33.76H4.448zm1.724 3.448v1.725m0-24.138v12.069"></path></g></svg>